<svg xmlns="http://www.w3.org/2000/svg" viewBox="0 0 155.699 240.312">
  <path fill="#86af4a" d="m69.242 0-8.795 11.53 2.491 33.48-3.148 4.322-42.534 1.292-10.58 13.583 4.352 44.444 11.73 10.018 41.79-6.596 3.639 3.465 1.824 24.512-2.991 4.637-40.821 9.188-9.393 13.76 3.968 40.509 11.503 7.62 39.107-13.508 3.45 2.605 2.182 29.331 8.879 6.12 64.076-27.98 5.728-11.087-1.163-29.555-6.872-7.066-60.42 19.208-3.276-2.717-1.546-22.157 2.809-4.54 61.393-15.613 6.185-11.009-1.244-31.609-7.112-8.806-63.014 8.105-3.448-3.554-1.674-24.035 2.847-4.108 63.985-4.073 6.564-10.597-1.315-33.413-7.323-10.678zm4.918 17.164 54.028 1.904 2.644 3.62 1.01 21.73-1.792 2.78-51.802 1.574-3.542-4.018-1.803-25.891zM53.213 65.392l3.688 3.81 1.85 23.833-3.011 4.346-28.226 3.55-2.868-2.582-2.45-26.665 3.579-4.748zm80.138 35.822 1.198 1.392.947 20.364-2.194 3.757-51.965 11.323-.399-.37-1.672-23.981 2.877-4.403zm-69.415 58.62 1.676 21.596-2.868 4.614-29.216 8.959-2.083-22.67 3.382-5.096zm74.176 19.374.795 17.102-2.114 3.938-50.113 19.76-1.316-18.868 2.744-4.66z"/>
  <path fill="#1b3f0f" fill-rule="evenodd" d="m69.242 0-8.007 2.666-8.629 11.199 2.514 32.392-2.425 3.29 7.095-.215 3.149-4.321-2.492-33.481zM17.257 50.624l-6.935 1.163L0 64.914l4.32 42.906 11.493 9.702 6.945 1.147-11.73-10.018-4.353-44.444zm41.47 62.368 5.82-.918 3.64 3.465 1.824 24.512-2.991 4.636-40.821 9.188-9.393 13.76 3.968 40.509-6.761-4.077-3.95-39.221 9.178-13.265 40.09-8.736 2.938-4.487-1.846-23.775zm16.106 91.868 2.183 29.332 8.879 6.12-7.746-4.468-8.782-6.034-2.03-26.155 4.048-1.399zm72.831-40.236-8.43-2.036-55.375 16.98.108 1.547 3.276 2.717zm-3.211-77.244-8.614-.076-55.557 6.99 1.157 1.191zM130.05 47.199l8.19-.249 2.307-3.633-.96-22.344-2.653-3.735-61.009-2.459-1.765 2.385 54.028 1.904 2.644 3.62 1.01 21.73zM28.96 102.235l34.505-4.438 3.068-4.486-1.831-24.601-3.741-3.939-7.748.622 3.688 3.81 1.85 23.832-3.011 4.346-28.226 3.55zm104.391-1.021 7.224-1.14 2.54 3.02.898 20.902-2.216 3.862-57.498 12.94-2.962-2.748 51.964-11.323 2.195-3.757-.947-20.364zm-69.415 58.62 4.152-1.056 3.54 3.012 1.684 22.628-2.918 4.77-32.648 10.38-4.062-2.866-.156-1.7 29.216-8.959 2.868-4.613zm74.175 19.374 5.854-2.022 2.436 2.392.843 19.617-2.133 4.053-54.999 22.522-3.193-2.338-.24-3.424 50.114-19.76 2.114-3.938z"/>
</svg>
