<svg xmlns="http://www.w3.org/2000/svg" version="1.1" xmlns:xlink="http://www.w3.org/1999/xlink" width="1000" height="1000"><metadata><rdf:RDF xmlns:rdf="http://www.w3.org/1999/02/22-rdf-syntax-ns#" xmlns:dc="http://purl.org/dc/elements/1.1/"><rdf:Description><dc:creator>RealFaviconGenerator</dc:creator><dc:source>https://realfavicongenerator.net</dc:source></rdf:Description></rdf:RDF></metadata><g clip-path="url(#SvgjsClipPath1066)"><rect width="1000" height="1000" fill="#ffffff"></rect><g transform="matrix(3.515625,0,0,3.515625,50,50)"><svg xmlns="http://www.w3.org/2000/svg" version="1.2" viewBox="0 0 1024 1024" width="256" height="256"><style>.a{fill:#bd3c13}.b{fill:#fff}</style><path class="a" d="m457.7 43.9c-14 1.3-33.3 3.5-42.8 5-9.3 1.6-25.1 4.8-34.7 7.3-9.9 2.8-24.2 8.2-31.9 12-7.7 3.9-17.5 10.8-21.8 15.3-4.2 4.4-10.4 13.7-13.9 20.4-3.3 6.8-11.2 26.6-17.5 44-6.4 17.6-23 65.4-36.9 106.5-13.9 41.1-27.4 79.7-29.9 85.7l-4.8 11c-22.4-2.7-53.3-6.7-83.4-11-35.9-4.8-64.3-7.3-83.2-7.1q-28.5 0-38.6 3.6c-5.2 2-11.7 5.5-14.1 7.8-2.3 2.3-4.2 7.3-4.2 11 0 3.8 3.1 10.2 6.8 14.4 3.6 4.3 13.3 12.2 21.4 17.8 8.1 5.4 25.6 14.9 39.2 21.2 13.5 6.4 40.1 17.2 59.4 24 19.1 6.9 39.7 14 45.9 15.6 6 1.7 10.6 4.2 10.1 5.6-0.6 1.3-2.4 9.6-4.1 18.3q-3.1 15.8-1.7 47.7c0.9 22.2 3.2 39 7.5 55.2 3.5 12.7 8.5 28.7 11.4 35.5 5.2 11.9 5.2 12.5 1.1 35.5-2.1 12.7-4 23.1-4.4 23.1 68.6 182.3 452.8 400.7 480.1 280.6 27.4-120.1 3.3-16.9 9.3-35.7 9.6-30.5 12.2-35.5 21.6-45.3 5.8-6 12.2-13.7 13.9-17.2 1.7-3.3 5.6-13.7 8.5-23.1l5.2-17.2c22.4-4.1 32.2-7 36.3-9.1 4-2.1 9.2-6 11.6-8.5 2.1-2.5 5.8-8.7 7.9-13.7 2.1-5 3.8-12.7 3.8-17.2 0-4.2-3.4-32.6-7.9-62.9-6.5-45.7-7.3-56.3-5-61.9 1.7-3.7 7.7-9.7 13.3-13.3 5.6-3.9 15.5-11.8 21.8-17.8 8.5-7.9 12-13.1 12.4-18.3 0.2-4.1 0.4-9.1 0.2-11.2-0.2-2.9 1.9-3.3 12.3-1.7 7.2 0.9 25.5 3 40.9 4.6 15.7 1.5 42.9 2.1 61.2 1.3 18.3-0.7 40.9-3.1 50.2-5.2 9.4-2.1 21-6.3 25.8-9.4 6-3.9 8.7-7.8 9.3-12.8 0.4-4-1.2-9.8-3.1-12.9-2.1-2.9-12.9-11.4-23.9-18.7-11.2-7.2-41.3-24.3-66.8-38.2-25.6-13.9-50.5-27.6-55.8-30.9l-9-5.8c0-27.4-1.8-65.2-3.7-101.5-1.9-36.5-4.8-79.3-6.4-95.5-1.3-16.2-5.2-48.7-8.5-72.2-3.2-23.5-7.1-46.1-8.2-50.2-1.4-4-5.5-10.2-9.3-13.5-4.8-4.6-12.9-7.5-28.8-10.6-12.1-2.5-39.1-10.8-60-18.5-20.8-7.9-48.4-17.2-61.2-20.7-12.9-3.4-31.6-8.1-41.6-10.2-10.1-2.1-30-5.4-44-7.3-14.3-2-45-4.1-68.5-4.7-23.8-0.5-54.5-0.2-68.8 1z"></path><path class="b" d="m451.8 544.3c-4.1 2.1-10.3 6.8-13.9 10.4-3.7 3.9-10.6 13.5-15.5 21.6-4.8 8.1-11.4 23-14.6 33-3.3 10.1-7.8 28.2-9.9 40.4-2.3 12.1-4 34.7-4 50.1 0 22.4 1.1 31.9 5.4 45.4 2.9 9.4 9.8 25.8 15.2 36.7 5.4 10.8 15.7 28.3 22.8 39.1 7.1 10.8 20.1 28.4 28.7 39.2 8.7 10.8 25.5 29 37.5 40.5 12 11.4 29.9 26.3 40.1 33 10.1 6.6 25.3 14.7 33.6 17.6 8.5 3.1 19.7 5.6 25.1 5.6q9.8 0.2 16.6-5.8c3.7-3.1 8.9-10.2 11.6-15.8l4.8-10.1c-7.5-7.7-12.6-10.4-15.8-11.2-3.3-0.5-10.3-5.4-15.3-10.8-5-5.6-9.2-11-9.2-12.3 0-1.4 1.9-3.5 4.2-4.8 2.5-1.2 16.2-2.2 30.5-1.8 21.8 0.4 27-0.4 30.7-3.8 3.3-3.1 3.6-4.9 1.5-7.4-1.3-1.7-8.7-5.8-15.8-8.8-7.3-3.3-20.3-7.4-29.1-9.1-8.7-1.9-23.4-3.5-32.5-3.5-9 0-16.4-0.6-16.4-1.3 0-0.6 1.6-5.1 3.7-9.7 2.1-5.2 5.8-9.2 9.1-10 3.1-0.8 23.1-1 44.7-0.6l39.2 0.8c1-9.5-0.2-13.7-1.7-15.5-1.8-1.7-8.1-5.6-14.1-8.7-6-2.8-12.6-7.9-14.7-11.1-2.3-3.9-3.8-11.2-3.6-19.7 0.2-7.6 1.5-16 3-19.1 1.6-2.9 6.4-7.8 10.9-10.5 4.4-2.7 9-4.8 10.4-4.8 1.3 0 2.5 5.2 2.5 11.6v11.6c41.7 2.5 56.7 4.4 60.6 6 3.6 1.3 12.7 2.7 20.1 2.7 10.2 0 14.6-1.2 18.3-4.9 2.7-2.7 5-8.1 5-11.7 0-3.7-2.7-21.1-6-38.6-3.1-17.4-7.7-46.7-10-64.9-2.1-18.1-5-34.9-6.4-37.2-1.1-2.3-4.6-4.3-7.7-4.3-2.9 0-20.3 7.2-38.4 15.7-18.3 8.7-40 17.7-48.3 20.2l-14.8 4.5c-28-25.9-45.2-39.6-56.4-47.3-11-7.7-19.5-14.5-18.7-15.1 0.8-0.7 17-2.9 35.9-5l34.6-3.6c-64.3-19.9-94-28.4-107.3-31.9-13.5-3.5-32.3-6.7-41.7-7.5-12.6-1-19.1-0.2-24.5 2.5zm-214.2-73.5c-4.7 1.7-12.2 7.5-16.6 12.7-4.7 5.6-9.5 15.4-11.8 24.3-2.9 10.4-3.7 21.4-2.9 39.2 0.8 15.1 2.9 29.5 5.8 37.8 2.5 7.5 8.5 20.1 13.3 28 4.6 7.7 14.5 20.5 22 28.2 7.3 7.9 18.1 16.6 23.9 19.5 5.6 2.9 13.9 4.8 18.4 4.6l7.9-0.8c2.1-32.6 1.7-36.3-1.2-37.2-2.1-0.6-9.1-3.5-15.8-6.4-6.6-2.9-16.2-9.4-21.4-14.5-5-5-12.8-16-16.8-24.5-4.1-8.3-8.3-22.4-9.7-31-1.1-8.9-1.5-19.3-0.7-23.4 0.7-4 2.9-10.4 4.8-14.1 1.7-3.6 6.2-8.9 10-11.7 3.7-2.7 10.1-4.9 14.1-4.9 4.3 0 11.6 3.1 17.8 7.4 5.6 4 13.9 13.5 18.3 21 4.2 7.3 8.1 13.1 8.3 12.7 0.2-0.4-0.8-7.1-1.9-15.2-1.4-8.1-4.9-20.3-7.9-27-3.1-6.8-8.7-14.5-12.8-17.4-3.8-2.9-11-6.4-15.8-7.9-4.6-1.6-11.2-2.9-14.7-2.7-3.3 0.2-9.8 1.7-14.6 3.3zm166.5-34c0 0.6 15.1 6 33.6 12 18.5 6 55.8 17 82.6 24.3 27 7.3 72.7 18.9 101.7 25.7 28.9 6.9 76.2 17.5 105.2 23.5 28.9 6.2 71.4 14.5 94.1 18.5 23 4.1 56 8.9 73.6 10.8 17.5 2 43.4 4.3 57.5 5.2 14 1 25 1 24.5 0.2-0.8-0.7-16-5.9-34.4-11.4-18.1-5.5-50-14.2-70.8-19.4-21-5.3-73.3-16.6-116.4-25.5-43-8.9-104.8-21.2-137-27.2-32.4-6.2-93-17.2-134.7-24.5-41.7-7.6-76.8-13.5-77.8-13.5q-1.5 0.2-1.7 1.3zm-77.2-159c1.4 0.4 18 3.7 36.7 6.9 18.9 3.3 110.4 19.9 203.2 36.9 93 17 186 34.5 206.9 39.2 20.8 4.6 42.8 10.2 49 12.3 6 2.1 12.1 3.7 13.5 3.7 1.3 0 2.3-5.2 2.1-11.6v-11.8c-30.1-8.5-58.7-14.8-83-19.5-24.3-4.6-88.2-14.8-142-22.9-53.8-8.1-116-17-138.2-19.7-22.4-2.9-61.9-7.3-88.2-10-26.2-2.7-51.1-4.9-55.2-4.7-3.8 0-6.1 0.6-4.8 1.2z"></path></svg></g></g><defs><clipPath id="SvgjsClipPath1066"><rect width="1000" height="1000" x="0" y="0" rx="150" ry="150"></rect></clipPath></defs></svg>